<svg width="495" height="80" viewBox="0 0 495 80" fill="none" xmlns="http://www.w3.org/2000/svg">
<mask id="mask0_3793_48894" style="mask-type:alpha" maskUnits="userSpaceOnUse" x="0" y="0" width="495" height="80">
<rect width="495" height="80" fill="#D9D9D9"/>
</mask>
<g mask="url(#mask0_3793_48894)">
<path d="M298.449 -19.0681C292.523 -12.1987 286.79 -5.13398 281.767 2.3078C292.387 -5.47437 302.023 -14.3435 311.361 -23.3623C314.07 -25.9885 317.81 -29.8024 320.471 -32.524C321.864 -33.9395 321.757 -36.1148 320.229 -37.3688C318.905 -38.4532 316.959 -38.4945 315.566 -37.5754C311.978 -35.2381 308.417 -32.903 304.904 -30.4724C296.088 -24.4119 287.483 -18.0831 279.369 -11.2355C277.741 -9.86308 276.129 -8.45477 274.563 -6.98807C276.6 -7.83514 278.577 -8.75181 280.539 -9.69206C286.634 -12.6165 292.602 -15.7665 298.449 -19.0681ZM266.313 -42.3457C262.032 -37.8304 257.59 -33.451 252.901 -29.275C251.48 -28.0187 250.032 -26.7725 248.513 -25.5701C249.371 -27.2278 250.287 -28.8282 251.246 -30.4195C257.881 -41.4537 265.71 -51.8396 274.044 -61.8569C276.727 -64.965 282.008 -62.3265 280.489 -58.5927C274.784 -45.4621 268.501 -32.4213 260.234 -20.3991C261.712 -27.8276 263.827 -35.1212 266.314 -42.3334L266.313 -42.3457ZM232.7 -28.4128C229.983 -36.8301 228.061 -45.4854 226.437 -54.1524C225.09 -47.6157 223.524 -41.1108 221.651 -34.6928C221.064 -32.7096 220.463 -30.7252 219.754 -28.7445C219.517 -32.8576 219.554 -36.9432 219.657 -41.0466C219.936 -51.2199 220.852 -61.4074 222.113 -71.5235L222.928 -77.583C223.128 -79.1379 224.478 -80.4258 226.256 -80.619C228.316 -80.8475 230.163 -79.5076 230.369 -77.6256C230.783 -74.0231 231.381 -68.9712 231.682 -65.4093C232.755 -53.1364 233.47 -40.7477 232.687 -28.4117L232.7 -28.4128ZM177.815 -68.9506C188.681 -54.5153 199.297 -39.8116 208.593 -24.4553C199.413 -33.4923 190.802 -43.0592 182.436 -52.77C186.547 -44.2667 190.473 -35.6864 194.092 -27.0441C195.236 -24.3196 196.327 -21.5784 197.366 -18.8082C193.836 -23.6604 190.54 -28.631 187.296 -33.6428C179.264 -46.1231 171.748 -58.9551 164.578 -71.8648L160.322 -79.6491C159.51 -81.1222 159.985 -82.9724 161.52 -83.9898C163.209 -85.1066 165.546 -84.7741 166.743 -83.2452C170.03 -79.0434 174.649 -73.1622 177.801 -68.9495L177.815 -68.9506ZM123.818 -47.1791C118.941 -50.7065 109.221 -57.8509 104.393 -61.4443C102.949 -62.5065 102.59 -64.4257 103.611 -65.9105C104.717 -67.5261 107.041 -68.024 108.778 -67.0351C118.928 -61.3029 130.052 -54.942 139.986 -49.0186C157.184 -38.7679 174.25 -28.3079 190.65 -17.0124C174.947 -24.0582 159.638 -31.7687 144.462 -39.6885C154.868 -31.4455 165.098 -23.0393 175.041 -14.4858C178.077 -11.877 181.063 -9.22679 184.024 -6.53742C177.069 -10.7407 170.286 -15.1566 163.527 -19.6116C150.12 -28.5057 136.816 -37.8052 123.818 -47.1791ZM54.0246 -24.8637L36.7029 -30.0788C34.8789 -30.6264 33.8127 -32.3892 34.2837 -34.1273C34.7872 -35.9673 36.8286 -37.1001 38.8471 -36.6675C58.9399 -32.2968 81.9499 -27.1317 101.865 -22.4364C128.75 -16.058 155.763 -9.44174 182.311 -2.01856C156.319 -6.08655 130.305 -10.9345 104.49 -16.0095C125.769 -9.06661 146.945 -1.87964 167.905 5.65983C170.733 6.69715 173.559 7.70981 176.377 8.7852C171.323 7.60504 163.792 5.69429 158.73 4.4155C123.564 -4.57013 88.7159 -14.512 54.0265 -24.8391L54.0246 -24.8637ZM175.621 25.1643C147.49 25.389 119.396 24.891 91.2999 24.207C71.1543 23.7246 48.3753 22.9337 28.1518 22.1598L7.11907 21.29C5.18351 21.2105 3.62728 19.7727 3.58987 17.9639C3.55899 16.0678 5.21166 14.4949 7.28574 14.439C63.3814 12.9359 120.152 11.8871 176.188 13.0072C146.04 15.343 115.666 17.0642 85.29 18.4257C101.508 19.3991 117.693 20.462 133.67 21.6409C147.655 22.7202 161.652 23.7736 175.633 25.1386L175.621 25.1643ZM177.643 41.617C144.999 49.8875 112.19 57.4516 79.3123 64.8475C55.7351 70.152 29.0163 75.9212 5.26873 80.9665L-19.4592 86.153C-21.383 86.5565 -23.3277 85.5223 -23.8625 83.7786C-24.4168 81.962 -23.2395 80.0551 -21.2447 79.5217C43.5782 62.2738 109.278 45.29 174.769 30.594C141.733 40.9064 108.305 50.7294 74.7682 60.226C92.5191 56.7944 110.251 53.4635 127.79 50.2723C144.382 47.2942 160.987 44.3026 177.643 41.617ZM186.206 57.6406C150.873 75.6833 115.178 93.0978 79.4006 110.345C53.7315 122.718 24.5762 136.502 -1.35271 148.685L-28.3606 161.302C-30.128 162.128 -32.3068 161.559 -33.2906 159.976C-34.3054 158.345 -33.6733 156.247 -31.8619 155.294C37.8588 118.453 109.041 81.3704 180.076 46.8433C143.236 68.0853 105.673 88.9638 67.9368 109.534C89.0539 100.01 110.244 90.5552 131.356 81.2928C149.61 73.3284 167.835 65.3414 186.233 57.6384L186.206 57.6406ZM-4.12634 230.065C60.6662 173.42 126.969 116.132 193.675 61.4798C162.239 90.9221 130.098 120.223 97.6947 149.297C114.228 136.346 130.783 123.481 147.078 110.947C164.054 97.9232 181.029 84.8874 198.213 72.083C165.938 99.8807 133.158 127.161 100.246 154.302C68.8598 180.167 32.7 209.494 0.883488 235.071C-2.98862 237.928 -7.53965 233.22 -4.14085 230.054L-4.12634 230.065Z" fill="url(#paint0_radial_3793_48894)"/>
<path d="M251.424 98.0717C255.939 92.6842 260.297 87.1416 264.153 81.2715C256.168 87.2623 248.875 94.1406 241.798 101.169C239.742 103.209 236.906 106.191 234.892 108.314C233.835 109.422 233.874 111.173 234.982 112.229C235.932 113.141 237.37 113.233 238.429 112.528C241.114 110.747 243.8 108.957 246.443 107.092C253.069 102.442 259.544 97.5766 265.667 92.2774C266.901 91.2064 268.116 90.1235 269.295 88.9872C267.781 89.6206 266.302 90.2974 264.831 91.0051C260.27 93.1948 255.813 95.5649 251.424 98.0717ZM274.698 117.796C277.946 114.27 281.305 110.855 284.858 107.618C285.932 106.642 287.026 105.669 288.175 104.751C287.512 106.065 286.802 107.335 286.073 108.594C280.959 117.32 274.972 125.484 268.632 133.344C266.59 135.777 262.744 133.493 263.932 130.52C268.392 120.076 273.295 109.723 279.624 100.245C278.391 106.197 276.687 112.035 274.709 117.787L274.698 117.796ZM299.793 107.491C301.638 114.37 302.885 121.415 303.921 128.46C305.049 123.211 306.333 118.007 307.832 112.873C308.3 111.28 308.788 109.698 309.345 108.123C309.44 111.445 309.335 114.75 309.179 118.069C308.773 126.277 307.903 134.492 306.78 142.623L306.069 147.498C305.883 148.746 304.867 149.747 303.551 149.857C302.024 149.977 300.692 148.849 300.572 147.322C300.33 144.397 299.985 140.308 299.83 137.411C299.284 127.459 298.984 117.439 299.803 107.492L299.793 107.491ZM339.525 141.802C331.783 129.829 324.222 117.651 317.659 104.984C324.272 112.544 330.443 120.526 336.426 128.601C333.556 121.617 330.822 114.576 328.314 107.485C327.526 105.253 326.77 103.004 326.055 100.738C328.566 104.756 330.908 108.869 333.197 113.007C338.883 123.314 344.192 133.897 349.224 144.536L352.218 150.938C352.789 152.156 352.401 153.636 351.255 154.404C349.981 155.261 348.265 154.921 347.409 153.647C345.06 150.156 341.765 145.272 339.517 141.781L339.525 141.802ZM379.832 125.751C383.372 128.74 390.406 134.783 393.901 137.827C394.943 138.727 395.18 140.285 394.389 141.457C393.539 142.724 391.82 143.068 390.553 142.218C383.174 137.298 375.082 131.84 367.857 126.774C355.351 118.007 342.961 109.069 331.062 99.4837C342.516 105.623 353.681 112.279 364.729 119.114C357.207 112.153 349.807 105.072 342.638 97.8818C340.45 95.6913 338.286 93.4627 336.155 91.2071C341.205 94.8069 346.131 98.556 351.033 102.353C360.759 109.91 370.404 117.8 379.822 125.751L379.832 125.751ZM431.789 109.703L444.48 114.41C445.81 114.905 446.569 116.361 446.179 117.751C445.773 119.22 444.237 120.082 442.768 119.675C428.022 115.581 411.125 110.747 396.504 106.393C376.775 100.473 356.953 94.3637 337.501 87.6157C356.622 91.6417 375.725 96.2888 394.69 101.134C379.105 94.9239 363.609 88.5112 348.289 81.8236C346.226 80.8998 344.149 80.005 342.097 79.0622C345.802 80.1577 351.334 81.914 355.042 83.0901C380.831 91.3475 406.369 100.375 431.789 109.703ZM342.978 65.8372C363.748 66.4605 384.486 67.6633 405.22 69.0063C420.084 69.9678 436.897 71.2599 451.81 72.4568L467.326 73.7597C468.75 73.8912 469.874 75.0897 469.861 76.5446C469.85 78.0702 468.592 79.2996 467.066 79.2892C425.615 78.9145 383.678 78.1434 342.323 75.6385C364.633 74.6064 387.086 74.0797 409.543 73.8445C397.587 72.5994 385.658 71.2764 373.888 69.8677C363.581 68.5942 353.262 67.3496 342.977 65.8471L342.978 65.8372ZM341.801 52.4823C366.063 46.7298 390.443 41.5506 414.86 36.5153C432.366 32.9005 452.219 29.0002 469.847 25.5974L488.206 22.1114C489.637 21.8419 491.051 22.7258 491.411 24.155C491.787 25.6358 490.885 27.1392 489.394 27.5136C441.197 39.6013 392.351 51.448 343.713 61.4662C368.307 54.0773 393.184 47.0962 418.129 40.3724C404.954 42.6401 391.797 44.829 378.78 46.9104C366.471 48.8362 354.159 50.792 341.8 52.4923L341.801 52.4823ZM335.789 39.2933C362.23 25.7181 388.922 12.6783 415.675 -0.245575C434.868 -9.50922 456.669 -19.8174 476.049 -28.9233L496.241 -38.3457C497.563 -38.9567 499.163 -38.4474 499.855 -37.1381C500.574 -35.7863 500.057 -34.1067 498.716 -33.3871C446.529 -5.60999 393.244 22.3167 340.129 48.1903C367.748 32.0827 395.881 16.2737 424.14 0.737351C408.36 7.83584 392.536 14.87 376.767 21.7485C363.135 27.6596 349.521 33.5924 335.789 39.2933ZM479.664 -94.5791C430.717 -50.6656 380.661 -6.2721 330.341 35.9781C354.117 13.0882 378.424 -9.67228 402.903 -32.2361C390.442 -22.2501 377.965 -12.3157 365.695 -2.66349C352.908 7.37274 340.119 17.4189 327.178 27.2702C351.543 5.73024 376.279 -15.3737 401.106 -36.3689C424.786 -56.3654 452.047 -79.0338 476.036 -98.7907C478.951 -100.992 482.222 -97.0543 479.645 -94.5909L479.664 -94.5791Z" fill="url(#paint1_radial_3793_48894)"/>
</g>
<defs>
<radialGradient id="paint0_radial_3793_48894" cx="0" cy="0" r="1" gradientUnits="userSpaceOnUse" gradientTransform="translate(164.524 67.1672) rotate(106.401) scale(182.655 195.708)">
<stop stop-color="#F47920"/>
<stop offset="0.65" stop-color="#DC3069"/>
<stop offset="1" stop-color="#D20F8C"/>
</radialGradient>
<radialGradient id="paint1_radial_3793_48894" cx="0" cy="0" r="1" gradientUnits="userSpaceOnUse" gradientTransform="translate(352.044 32.2322) rotate(-73.5118) scale(146.09 146.09)">
<stop offset="0.3" stop-color="#FDEE00"/>
<stop offset="0.36" stop-color="#F2EB06"/>
<stop offset="0.47" stop-color="#D5E416"/>
<stop offset="0.61" stop-color="#A6D831"/>
<stop offset="0.77" stop-color="#66C956"/>
<stop offset="0.96" stop-color="#14B585"/>
<stop offset="1" stop-color="#00B091"/>
</radialGradient>
</defs>
</svg>
